<?xml version="1.0" encoding="utf-8"?>
<!DOCTYPE svg PUBLIC "-//W3C//DTD SVG 1.1//EN" "http://www.w3.org/Graphics/SVG/1.1/DTD/svg11.dtd">
<svg version="1.1" id="Layer_1" xmlns="http://www.w3.org/2000/svg" xmlns:xlink="http://www.w3.org/1999/xlink" x="0px" y="0px"
	 width="100%" height="100%" viewBox="0 0 454.222 36.905" enable-background="new 0 0 454.222 36.905"
	 xml:space="preserve">
<path fill="#FFFFFF" d="M0.075,8.211l45.522-1.23c3.917-0.106,7.107,0.55,7.127,1.465l0.048,2.354
	c0.054,0.115,0.093,0.235,0.101,0.363c0.013,0.169-0.029,0.332-0.095,0.49c-0.019,0.127-0.096,0.25-0.228,0.371
	c-0.41,0.485-1.173,0.85-2.073,0.918l-0.417,0.031c-1.195,0.248-2.693,0.421-4.329,0.465l-2.84,0.077L0.168,16.742l0.035,3.134
	l42.433,3.396l2.856,0.09c1.645,0.051,3.151,0.23,4.351,0.486l0.42,0.033c0.905,0.073,1.669,0.442,2.076,0.934
	c0.132,0.121,0.209,0.247,0.226,0.373c0.064,0.16,0.104,0.326,0.091,0.496c-0.011,0.127-0.05,0.25-0.104,0.365l-0.075,2.367
	c-0.028,0.921-3.247,1.566-7.188,1.443L0.297,28.443l0.027,2.472l35.55,5.396c9.206,0.568,17.001,0.841,18.881,0.306
	c5.171-1.472,17.294-10.668,17.541-10.855l134.353-0.094c2.914-0.004,5.274-2.711,5.273-6.05l-0.002-2.013
	c-0.004-3.338-2.564-6.043-5.479-6.041L72.006,11.659v-0.48c0,0-11.955-9.372-17.129-10.872c-1.863-0.539-9.513-0.304-18.664,0.221
	L0,5.863L0.075,8.211z"/>
<path fill="#FFFFFF" d="M454.222,8.766l-7.712,0.007l-68.296,0.006l-1.332-0.014l-35.381,0.019c-3.649,0.002-5.495,1.299-5.495,2.83
	v-0.006l-106.164,0.2c-0.418,0.001-0.837,0.029-1.254,0.069l-3.267,0.002c-2.914,0.004-5.296,2.681-5.294,5.982l-0.02,1.991
	c0.004,3.3,2.606,5.975,5.521,5.973l5.478-0.003v-0.108l105-0.208v0.207c0,0.898,0.095,2.191,1.586,2.745l7.385,0.889l6.82-0.395
	l19.583-0.532l6.793-0.063c0.889,0,1.732-0.021,2.503-0.156c5.812-0.178,12.889-0.419,16.706-0.93
	c6.982-0.933,22.89-3.23,43.762-11.467c0.306-0.066,0.46-0.136,0.47-0.202c0.14-0.054,0.264-0.114,0.393-0.171v-0.008l0.121-0.044
	c-0.041,0.018-0.081,0.035-0.121,0.052v0.105l0.078,0.03l0.082-0.201l5.291-1.903l-0.038,0.004l0.199-0.027L454.222,8.766z"/>
</svg>
